<?xml version="1.0" encoding="UTF-8" standalone="no"?><svg xmlns="http://www.w3.org/2000/svg" xmlns:xlink="http://www.w3.org/1999/xlink" data-name="Layer 1" fill="#677ea4" height="480.9" preserveAspectRatio="xMidYMid meet" version="1" viewBox="0.0 0.0 480.9 480.9" width="480.9" zoomAndPan="magnify"><g id="change1_1"><path d="M251.23,9.55C118.44,9.55,10.79,117.2,10.79,250S118.44,490.45,251.23,490.45,491.68,382.8,491.68,250,384,9.55,251.23,9.55ZM374,386.08a21.21,21.21,0,0,1-21.1,21.21l-51.5.26a21.21,21.21,0,0,1-21.32-21.21V319.88a20.7,20.7,0,0,0-1.61-8.11,31,31,0,0,0-58.28,2.71,19.92,19.92,0,0,0-.93,6.18l0,64.47a21.2,21.2,0,0,1-21.1,21.2l-51.44.26a21.21,21.21,0,0,1-21.31-21.28q.18-53.91.37-107.82a21.22,21.22,0,0,1,6.86-15.55l103-94.64a21.2,21.2,0,0,1,28.63-.06Q315.65,214.1,367.06,261A21.18,21.18,0,0,1,374,276.63Zm32.49-112.22h-.05a19.81,19.81,0,0,1-14-5.79L263.83,139.45a19.79,19.79,0,0,0-28,0L107,268.08a19.79,19.79,0,0,1-14,5.78c-17.6,0-26.44-21.27-14-33.74L236.19,82.33a19.79,19.79,0,0,1,28.07,0l59.88,60.45V109.71a14.92,14.92,0,0,1,14.92-14.93h9.83a14.92,14.92,0,0,1,14.93,14.93v73.18l56.72,57.27C432.91,252.65,424.06,273.86,406.48,273.86Z" transform="translate(-10.79 -9.55)"/></g></svg>