<?xml version="1.0" encoding="UTF-8" standalone="no"?><svg xmlns="http://www.w3.org/2000/svg" xmlns:xlink="http://www.w3.org/1999/xlink" fill="#bcb792" height="500" preserveAspectRatio="xMidYMid meet" version="1" viewBox="0.0 0.0 611.6 500.0" width="611.6" zoomAndPan="magnify"><defs><clipPath id="a"><path d="M 0 0 L 611.648438 0 L 611.648438 500 L 0 500 Z M 0 0"/></clipPath></defs><g><g clip-path="url(#a)" id="change1_1"><path d="M 591.765625 138.410156 C 591.058594 202.824219 591.992188 425.714844 591.765625 474.195312 C 591.765625 476.042969 586.660156 480.25 581.835938 480.25 L 27.949219 480.25 C 24.207031 480.25 19.925781 476.996094 19.902344 474.164062 C 19.640625 415.523438 19.964844 191.4375 19.902344 138.519531 C 19.894531 131.808594 19.769531 127.203125 26.292969 127.179688 C 30.734375 127.160156 578.171875 126.824219 583.898438 127.179688 C 590.320312 127.574219 592.257812 131.898438 591.765625 138.410156 Z M 56.433594 31.191406 C 56.433594 24.878906 61.5625 19.746094 67.859375 19.746094 L 181.59375 19.726562 C 216.5 22.277344 241.792969 45.609375 256.894531 59.558594 C 266.3125 68.238281 271.488281 73.015625 278.269531 73.015625 C 281.390625 72.992188 541.773438 73.015625 541.773438 73.015625 C 548.070312 73.015625 553.207031 78.148438 553.207031 84.457031 L 553.207031 107.476562 C 518.496094 107.507812 115.210938 107.492188 56.433594 107.460938 Z M 611.507812 138.933594 C 612.464844 126.796875 608.300781 119.519531 604.640625 115.558594 C 601.210938 111.847656 594.835938 107.429688 583.300781 107.429688 C 582.535156 107.4375 579.019531 107.445312 572.945312 107.460938 L 572.945312 84.457031 C 572.945312 67.261719 558.957031 53.269531 541.769531 53.269531 C 541.769531 53.269531 286.953125 53.238281 279.714844 53.257812 C 277.699219 51.886719 273.636719 48.136719 270.300781 45.066406 C 253.296875 29.359375 224.84375 3.082031 182.320312 0 L 67.859375 0 C 50.664062 0 36.683594 13.992188 36.683594 31.191406 L 36.683594 107.445312 C 30.636719 107.4375 26.957031 107.4375 26.132812 107.429688 C 16.664062 107.429688 -1.898438 107.773438 0.15625 138.558594 C 0.09375 194.125 -0.109375 415.574219 0.15625 474.273438 C 0.234375 487.976562 13.222656 500 27.949219 500 L 581.832031 500 C 595.8125 500 611.484375 488.976562 611.515625 474.261719 C 611.75 425.757812 610.808594 202.894531 611.507812 138.933594" fill="inherit"/></g></g></svg>